<svg xmlns="http://www.w3.org/2000/svg" viewBox="0 0 71.86 74.17"><defs><style>.cls-1,.cls-2{fill:#2e3192;}.cls-1{stroke:#00aeef;stroke-miterlimit:10;stroke-width:4px;}.cls-3{fill:#00aeef;}.cls-4{font-size:30px;fill:#f1f2f2;font-family:ArialMT, Arial;}</style></defs><g id="Layer_2" data-name="Layer 2"><g id="Layer_1-2" data-name="Layer 1"><g id="_3d" data-name="3d"><rect class="cls-1" x="2" y="22.06" width="50" height="50"/><polygon class="cls-2" points="4.77 17.92 18.83 2.14 67.09 2.14 53.03 17.92 4.77 17.92"/><path class="cls-3" d="M62.32,4.28l-5.8,6.51-4.45,5H9.55l5.8-6.51,4.44-5H62.32M71.86,0h-54Q8.95,10,0,20.06H54Q62.93,10,71.86,0Z"/><polygon class="cls-2" points="56.04 19.28 69.81 5.07 69.81 54.89 56.04 69.1 56.04 19.28"/><path class="cls-3" d="M67.76,10.13V54.06L58.09,64V20.11l5-5.14,4.69-4.84M71.86,0,54,18.45V74.17L71.86,55.72V0Z"/><text class="cls-4" transform="translate(9.03 55.48)">3D</text></g></g></g></svg>