<svg xmlns="http://www.w3.org/2000/svg" viewBox="0 0 78.33 76.16"><defs><style>.cls-1,.cls-3,.cls-4{fill:none;}.cls-1,.cls-3{stroke:#010101;stroke-width:3px;}.cls-2{fill:#010101;}.cls-3{stroke-linejoin:round;}</style></defs><g id="Layer_2" data-name="Layer 2"><g id="Layer_1-2" data-name="Layer 1"><g id="edit"><path id="path2830" class="cls-1" d="M2.47,73.64l3.26-9.27,6.92-19.71S54.91,3,57.14,1.88s4.58.57,4.58.57a28.92,28.92,0,0,1,8.88,7C74.84,14.29,77,17,76.83,19.52s-44.48,43-44.48,43L12.61,69.87,2.47,73.64Z"/><path id="path2836" class="cls-1" d="M19.15,48.94,38.24,30.71s1.17.58,4.74,4.48,4.77,5.49,4.77,5.49L28.52,58.41l-8-.43-1.39-9Z"/><path id="path2838" class="cls-1" d="M29.23,63.56l3.12-1,18.5-17.19-3.1-4.67L28.52,58.4l.71,5.16Z"/><path id="path2832" class="cls-2" d="M6.06,64l6.23,5.82L2.48,73.63,6.06,64Z"/><path id="path2840" class="cls-1" d="M11.65,47.86,12,51.13l7.12-2.19,1.38,9,8,.43.72,5.15,3.11-1,18.5-17.19a74.35,74.35,0,0,0-9.32-11.5,56.87,56.87,0,0,0-9.8-7.94L12.66,44.66l-1,3.2Z"/><path id="path2842" class="cls-3" d="M6.06,64l6.23,5.82,16.94-6.22-.71-5.15-8-.43-1.39-9L12,51.13l-.39-3.27L6.07,64Z"/><path id="path2844" class="cls-4" d="M45.84,12.83a31.29,31.29,0,0,1,10.66,7,111.91,111.91,0,0,1,9,11.89L50.85,45.35s-6.34-9.59-9.47-12.12-9.66-7.31-9.66-7.31L45.84,12.83Z"/><path id="path2850" class="cls-1" d="M45.84,12.83a31.29,31.29,0,0,1,10.66,7,111.91,111.91,0,0,1,9,11.89L50.85,45.35S45.15,37.08,42.11,34c-2.81-2.87-10.39-8.06-10.39-8.06L45.84,12.83Z"/></g></g></g></svg>