<svg xmlns="http://www.w3.org/2000/svg" viewBox="0 0 68.99 67.17"><defs><style>.cls-1,.cls-3{fill:none;stroke-width:4px;}.cls-1,.cls-2,.cls-3{stroke:#00aeef;}.cls-2{fill:#2aace2;stroke-miterlimit:10;}.cls-3{stroke-linejoin:round;}</style></defs><g id="Layer_2" data-name="Layer 2"><g id="Layer_1-2" data-name="Layer 1"><g id="edit_short"><path id="path2830" class="cls-1" d="M56.74,30.85c-5.56,4.79-10.71,10-16.11,15l-7.46,6.85L13.44,60,3.3,63.81q1.62-4.64,3.26-9.27l6.92-19.71q3.84-3.8,7.72-7.59Q29.56,19,37.91,11C43,6.13,46.68,2.68,47.3,2.38c2.23-1.11,4.57.57,4.57.57a28.79,28.79,0,0,1,8.88,7c3.4,3.9,6.38,6.66,6.23,10.11C66.85,23.17,64.34,24.31,56.74,30.85Z"/><path id="path2836" class="cls-1" d="M20,39.11,39.07,20.88s1.16.58,4.73,4.48,4.78,5.49,4.78,5.49L29.34,48.58l-8-.43-1.38-9Z"/><path id="path2838" class="cls-1" d="M30.06,53.73l3.12-1,18.5-17.19-3.1-4.67L29.34,48.58l.72,5.15Z"/><path id="path2832" class="cls-2" d="M7.36,53.73l6.23,5.83L3.77,63.41l3.59-9.68Z"/><path id="path2840" class="cls-1" d="M12.48,38l.39,3.27L20,39.11l1.38,9,8,.43.72,5.15,3.12-1,18.5-17.19A75.06,75.06,0,0,0,42.36,24a57.74,57.74,0,0,0-9.81-7.94L13.48,34.83l-1,3.2Z"/><path id="path2842" class="cls-3" d="M6.89,54.13,13.12,60l16.94-6.22-.72-5.15-8-.43-1.38-9L12.86,41.3,12.48,38,6.89,54.13Z"/></g></g></g></svg>