<svg xmlns="http://www.w3.org/2000/svg" viewBox="0 0 67.67 65.83"><defs><style>.cls-1,.cls-3{fill:none;stroke:#010101;stroke-width:3px;}.cls-2{fill:#010101;}.cls-3{stroke-linejoin:round;}</style></defs><g id="Layer_2" data-name="Layer 2"><g id="Layer_1-2" data-name="Layer 1"><g id="edit_short"><path id="path2830" class="cls-1" d="M55.92,30.35c-5.57,4.79-10.71,10-16.12,15l-7.45,6.85L12.61,59.54,2.47,63.31Q4.11,58.68,5.73,54l6.92-19.71,7.72-7.59q8.37-8.2,16.72-16.29c5-4.82,8.77-8.27,9.39-8.57,2.23-1.11,4.57.57,4.57.57a28.92,28.92,0,0,1,8.88,7c3.39,3.9,6.38,6.66,6.23,10.11C66,22.67,63.52,23.81,55.92,30.35Z"/><path id="path2836" class="cls-1" d="M19.15,38.61,38.24,20.38S39.41,21,43,24.86s4.77,5.49,4.77,5.49L28.52,48.08l-8-.43-1.39-9Z"/><path id="path2838" class="cls-1" d="M29.23,53.23l3.12-1L50.85,35l-3.1-4.67L28.52,48.08l.71,5.15Z"/><path id="path2832" class="cls-2" d="M6.53,53.23l6.23,5.83L3,62.91l3.58-9.68Z"/><path id="path2840" class="cls-1" d="M11.65,37.53,12,40.8l7.12-2.19,1.38,9,8,.43.72,5.15,3.11-1L50.85,35a74.35,74.35,0,0,0-9.32-11.5,57.48,57.48,0,0,0-9.8-7.94L12.66,34.33l-1,3.2Z"/><path id="path2842" class="cls-3" d="M6.06,53.63l6.23,5.82,16.94-6.22-.71-5.15-8-.43-1.39-9L12,40.8l-.39-3.27L6.07,53.63Z"/></g></g></g></svg>