<svg xmlns="http://www.w3.org/2000/svg" viewBox="0 0 99.25 118.29"><defs><style>.cls-1{fill:#fff;stroke:#231f20;stroke-miterlimit:10;stroke-width:4.67px;}.cls-2{font-size:100px;font-family:ArialMT, Arial;}.cls-2,.cls-3{fill:#231f20;}.cls-4{fill:#010101;}</style></defs><g id="Layer_2" data-name="Layer 2"><g id="Layer_1-2" data-name="Layer 1"><rect class="cls-1" x="2.34" y="4.96" width="94.57" height="94.57" rx="11.22"/><text class="cls-2" transform="translate(11.65 85.82)">Ω</text><path class="cls-3" d="M32.79,26.9c.06,2.27,3.48,3,4.64,7.48.61,2.32-.14,2.8.26,7,.06.61.7,7.13,2.07,7.22,1,.08,2.14-3.55,2.58-5.42,1-4.44-.06-5.72.51-11.61A36.75,36.75,0,0,1,44.4,23.8a33.42,33.42,0,0,1,2.32-5.42C35.45,22,32.73,24.82,32.79,26.9Z"/><path class="cls-3" d="M55,78.51a42.89,42.89,0,0,1,.52-10.07,58.8,58.8,0,0,1,1.8-7c1.34-4.52,1.77-4.91,2.07-4.91.76,0,1.25,2.55,1.81,5.16.65,3.11,1.65,7.59,3.09,13.17"/><path id="path4" class="cls-4" d="M56.93,55.77c-.72-.74-2-2-2.55-.38-.36.64-1.51,2.49-1.63.81-1.29-.66-1.68,2.32-2.41,1.71.07-1.77-2.2-1.68-2.56-.17-.45.67-.77,2.73-1.28,2.6,0-1.16,0-3.63-1.88-2.78-1.93,1-2.39,3.34-3.27,5.15-.14.69-.73,1.1-.67.1a20,20,0,0,1,2.65-12.74c.56-.91,1.26-2.47,2.37-1.23,1.46.75,3,1.9,4.78,1.45,2.07-.43-1.54-2.6.9-2.7.95-.13,1.61-2,2.16-1.74.08.82.69,1.87,1.23.59a9.84,9.84,0,0,0,.55-6.74c.74-.85,2.12-.93,3.18-1.25,3.79-.75,7.71.63,10.77,2.84-1,.2-2.38,0-3.49.4a8.07,8.07,0,0,0-3.32,2,2.13,2.13,0,0,0,1.32,2.21c1.47,1-1.51.51-2.14.84-1.59.14-1.62,2-.54,2.84-.06.38-1.19.46-1.55.87-1,.46-1.32,1.32-.08,1.76-.81.54-2.85.33-2.58,1.95-.06.51.25,1.17,0,1.62Z"/></g></g></svg>