<svg xmlns="http://www.w3.org/2000/svg" viewBox="0 0 66.55 68.92"><defs><style>.cls-1{fill:#fff;}.cls-2{fill:none;stroke:#fff;stroke-miterlimit:10;stroke-width:4px;}.cls-3{fill:#2e3192;}.cls-4{fill:#00aeef;}</style></defs><g id="Layer_2" data-name="Layer 2"><g id="Layer_1-2" data-name="Layer 1"><g id="plan"><path class="cls-1" d="M62.55,4V46h-42V4h42m4-4h-50V50h50V0Z"/><path class="cls-1" d="M46,22.92v42H4v-42H46m4-4H0v50H50v-50Z"/><line class="cls-2" x1="65.04" y1="48.68" x2="48.49" y2="67.6"/><line class="cls-2" x1="19.75" y1="47.42" x2="3.19" y2="66.34"/><polygon class="cls-3" points="4.41 16.92 17.46 2 62.15 2 49.09 16.92 4.41 16.92"/><path class="cls-4" d="M57.74,4,48.18,14.92H8.82L18.37,4H57.74m8.81-4h-50Q8.28,9.47,0,18.92H50Q58.28,9.45,66.55,0Z"/></g></g></g></svg>