<svg xmlns="http://www.w3.org/2000/svg" viewBox="0 0 99.48 85.27"><defs><style>.cls-1{fill:#fff;fill-rule:evenodd;}</style></defs><g id="Layer_2" data-name="Layer 2"><g id="Layer_1-2" data-name="Layer 1"><g id="print"><path id="path4741" class="cls-1" d="M25.12,0V14.69H21.74c-2.67,0-3.78,1.84-6.79,6.83L7.17,34.38H31.74V6.6h36V34.39H79.85c4.62,0,4.62,6.94,0,6.94h-73A6.87,6.87,0,0,0,.33,46.19c0,.1-.07.2-.11.31A7,7,0,0,0,0,48s0,0,0,.09a3.42,3.42,0,0,1,0,.64v16.9a6.81,6.81,0,0,0,6.83,6.83h4.59a58,58,0,0,0-1.17,12.78h79a75,75,0,0,0-1.17-12.78h4.6a6.82,6.82,0,0,0,6.83-6.83V48.16a6.71,6.71,0,0,0-.9-3.33h0l-.31-.49L84.53,21.54c-3-5-4.14-6.83-6.79-6.83h-3.4V0ZM9,53.72H20A67.39,67.39,0,0,0,16,60.65H9.14C4.51,60.74,4.37,53.72,9,53.72Zm20,0H70.52c1.25,1.46,9,12,10.68,24.6H18.27C20,65.71,27.7,55.17,29,53.72Zm50.46,0H90.33c4.62,0,4.62,6.93,0,6.93H83.52A65.52,65.52,0,0,0,79.41,53.72Z"/></g></g></g></svg>