<svg xmlns="http://www.w3.org/2000/svg" viewBox="0 0 212.83 122.7"><defs><style>.cls-1,.cls-2{fill:none;stroke:#fff;stroke-miterlimit:10;}.cls-1{stroke-width:8px;}.cls-2{stroke-width:4px;}</style></defs><g id="Layer_2" data-name="Layer 2"><g id="Layer_1-2" data-name="Layer 1"><g id="surface"><path class="cls-1" d="M204.82,61.78,106.55,4.62,8,61.21l98.26,56.88Z"/><path class="cls-2" d="M88.72,14.86A114.83,114.83,0,0,0,113.31,30c6.22,2.78,10.78,4.1,18.58,8.73a145.24,145.24,0,0,1,13.24,9c8.55,6.42,7.51,6.82,13,10.42,5.9,3.9,8,4,17.74,9.57,4,2.26,7.09,4.23,9.05,5.49"/><path class="cls-2" d="M162.87,82.89A77,77,0,0,1,150.76,75a83.84,83.84,0,0,1-9.86-9.29c-5.76-6.37-5.08-7.5-10.69-13.52a84,84,0,0,0-10.42-9.29c-4.85-3.84-6.81-4.77-8.73-5.35a27.73,27.73,0,0,0-8.45-.84c-4.06,0-4.19.5-9,.56-5.34.06-7.47-.53-8.44-.84a25.43,25.43,0,0,1-4.79-2.26c-3.15-1.73-4.29-2.9-7.32-4.22A28.11,28.11,0,0,0,70,28.83"/><path class="cls-2" d="M49.41,37.44a25,25,0,0,0,3.08,3.5,26.56,26.56,0,0,0,6.57,4.46,29.7,29.7,0,0,0,7.47,2.39c7.07,1.38,15,1.14,23.51.85a11.72,11.72,0,0,1,5.25.75c3,1.22,4.43,3.47,6.38,6,2.39,3.09,5.31,5.71,7.89,8.64,5.65,6.42,8.48,9.63,11.26,12.39a137.87,137.87,0,0,0,12,10.51c3.75,3,7.1,5.34,9.76,7.13"/><path class="cls-2" d="M29.22,50.89c2.46,1.37,6.55,3.63,11.64,6.38C51.35,63,59.63,67.43,70.51,73c9.49,4.89,13,6.54,18.4,10.51,4.58,3.38,4.43,4,8.63,6.76,6.58,4.39,9.9,5,18,9.38a120.2,120.2,0,0,1,11,6.8"/><path class="cls-2" d="M183.14,49.17c-1.8,1.42-4.35,3.34-7.51,5.47a143.28,143.28,0,0,1-20.27,11.27c-11.78,5.49-11.11,3.77-18,7.5-7.82,4.23-6.84,5.44-18.4,13.14-8.83,5.9-11.39,6.52-20.27,12.77-4.72,3.32-8.41,6.26-10.73,8.16"/><path class="cls-2" d="M163.62,38.88c-1.75,1-4.4,2.5-7.61,4.5-2.83,1.77-2.74,1.81-3.75,2.35a29.49,29.49,0,0,1-11.07,3,73,73,0,0,1-8.73-.19,99.75,99.75,0,0,0-10.8-.09,12.3,12.3,0,0,0-4.69.94,15,15,0,0,0-4.13,3,35.16,35.16,0,0,0-3.56,4c-3.36,4.12-3.83,3.5-6.67,7-2.31,2.88-2.08,3.39-4.78,6.75-.56.69-1.84,2.25-4.32,4.79A116.66,116.66,0,0,1,82.06,85.24a107.82,107.82,0,0,1-14.27,9.29"/><path class="cls-2" d="M49.59,82.89A120.14,120.14,0,0,0,61.5,74.82,93.34,93.34,0,0,0,75.77,61.87c3-3.4,2.27-3.14,7.41-9.39,5.48-6.68,8.29-10.06,11.36-11.91,2.22-1.34,7.33-4.43,13.52-3.92,2.65.21,5.17,1.06,10.7,1.19a26.24,26.24,0,0,0,4.31-.09c1.92-.24,3.44-.7,10.14-3.75,5.24-2.39,6.06-2.91,6.76-3.38a26.16,26.16,0,0,0,5.25-4.79"/><path class="cls-2" d="M125,16a121.24,121.24,0,0,1-11.36,7.22c-3.62,2-7.42,3.83-15,7.42-6.08,2.87-6.16,2.82-9.2,4.31-1.45.72-7.45,3.7-13.89,7.51-7.66,4.54-7.8,5.45-19.8,13.42a160,160,0,0,1-14.83,9.2A114.09,114.09,0,0,1,26,71.61"/></g></g></g></svg>