<svg xmlns="http://www.w3.org/2000/svg" viewBox="0 0 52.5 60"><defs><style>.cls-1{fill:#010101;}</style></defs><g id="Layer_2" data-name="Layer 2"><g id="Layer_1-2" data-name="Layer 1"><path class="cls-1" d="M0,16.87v-4.1A5.32,5.32,0,0,1,1.76,9,5.5,5.5,0,0,1,5.62,7.5h5.63V5.62a5.43,5.43,0,0,1,1.64-4,5.43,5.43,0,0,1,4-1.64H35.62a5.45,5.45,0,0,1,4,1.64,5.43,5.43,0,0,1,1.64,4V7.5h5.62A5.51,5.51,0,0,1,50.74,9a5.36,5.36,0,0,1,1.76,3.75v4.1a3.81,3.81,0,0,1-3.75,3.75V52.5a7.41,7.41,0,0,1-7.5,7.5h-30a7.26,7.26,0,0,1-5.33-2.17A7.23,7.23,0,0,1,3.75,52.5V20.62a3.62,3.62,0,0,1-2.64-1.11A3.61,3.61,0,0,1,0,16.87Zm3.75,0h45V13.12a1.81,1.81,0,0,0-1.88-1.87H5.62a1.81,1.81,0,0,0-1.87,1.87v3.75ZM7.5,52.5a3.81,3.81,0,0,0,3.75,3.75h30A3.83,3.83,0,0,0,45,52.5V20.62H7.5V52.5Zm3.75-1.88V26.25a1.81,1.81,0,0,1,1.87-1.88h3.75a1.81,1.81,0,0,1,1.88,1.88V50.62a1.81,1.81,0,0,1-1.88,1.88H13.12a1.81,1.81,0,0,1-1.87-1.88Zm1.87,0h3.75V26.25H13.12ZM15,7.5H37.5V5.62a1.81,1.81,0,0,0-1.88-1.87H16.87a1.82,1.82,0,0,0-1.34.53A1.79,1.79,0,0,0,15,5.62V7.5Zm7.5,43.12V26.25A1.79,1.79,0,0,1,23,24.9a1.82,1.82,0,0,1,1.34-.53h3.75A1.81,1.81,0,0,1,30,26.25V50.62a1.81,1.81,0,0,1-1.88,1.88H24.37A1.82,1.82,0,0,1,23,52,1.79,1.79,0,0,1,22.5,50.62Zm1.87,0h3.75V26.25H24.37Zm9.38,0V26.25a1.79,1.79,0,0,1,.53-1.35,1.82,1.82,0,0,1,1.34-.53h3.75a1.81,1.81,0,0,1,1.88,1.88V50.62a1.81,1.81,0,0,1-1.88,1.88H35.62A1.82,1.82,0,0,1,34.28,52,1.79,1.79,0,0,1,33.75,50.62Zm1.87,0h3.75V26.25H35.62Z"/></g></g></svg>