<svg xmlns="http://www.w3.org/2000/svg" viewBox="0 0 42.56 42.56"><defs><style>.cls-1{fill:#f47b20;stroke:#914c21;}.cls-1,.cls-2{stroke-linecap:round;stroke-linejoin:round;stroke-width:0.98px;}.cls-2{fill:none;stroke:#fbaf40;}.cls-3,.cls-4{fill:#fff;}.cls-4{fill-opacity:0.21;}</style></defs><g id="Layer_2" data-name="Layer 2"><g id="Layer_1-2" data-name="Layer 1"><g id="warning"><path id="path1650" class="cls-1" d="M42.07,21.28a20.79,20.79,0,0,1-41.58,0h0a20.79,20.79,0,0,1,41.58,0Z"/><path id="path3392" class="cls-2" d="M41.54,21.19a20.12,20.12,0,0,1-40.24,0h0a20.12,20.12,0,0,1,40.24,0Z"/><path id="rect1872" class="cls-3" d="M18.45,10.25c-.13,0-.24.18-.24.39l1.07,14.44c0,.21.11.38.23.38h1.54a4.16,4.16,0,0,0,.5,0h1.54c.12,0,.23-.17.23-.38l1.07-14.44c0-.21-.11-.36-.24-.36H21.57s0,0,0,0Z"/><path id="path2062" class="cls-3" d="M23.65,30.07a2.31,2.31,0,1,1-2.31-2.31,2.3,2.3,0,0,1,2.31,2.31Z"/><path id="path3068" class="cls-4" d="M40.66,20.36c0,10.83-6-4.31-18.67.38S1.42,31.19,1.42,20.36a19.62,19.62,0,1,1,39.24,0Z"/></g></g></g></svg>