<svg xmlns="http://www.w3.org/2000/svg" viewBox="0 0 66.63 67.08"><defs><style>.cls-1{fill:#fff;}</style></defs><g id="Layer_2" data-name="Layer 2"><g id="Layer_1-2" data-name="Layer 1"><g id="zoomfit"><polygon class="cls-1" points="37.52 47.06 48.06 57.6 50.69 60.24 43.85 67.08 66.51 67.08 66.51 44.42 59.66 51.27 57.03 48.63 46.49 38.09 37.52 47.06"/><polygon class="cls-1" points="20.02 38.09 9.48 48.63 6.85 51.27 0 44.42 0 67.08 22.66 67.08 15.82 60.24 18.45 57.6 29 47.06 20.02 38.09"/><polygon class="cls-1" points="46.61 28.99 57.15 18.45 59.78 15.82 66.63 22.66 66.63 0 43.97 0 50.81 6.85 48.18 9.48 37.64 20.02 46.61 28.99"/><polygon class="cls-1" points="28.99 20.02 18.45 9.48 15.82 6.85 22.66 0 0 0 0 22.66 6.85 15.82 9.48 18.45 20.02 29 28.99 20.02"/></g></g></g></svg>