<svg xmlns="http://www.w3.org/2000/svg" viewBox="0 0 143.68 166.27"><defs><style>.cls-1,.cls-2,.cls-3,.cls-4{fill:none;}.cls-1,.cls-2,.cls-4,.cls-7{stroke:#fff;}.cls-1{stroke-width:8.68px;}.cls-2{stroke-width:9.13px;}.cls-3,.cls-5{stroke:#010101;}.cls-3{stroke-width:8.91px;}.cls-4{stroke-width:0.46px;}.cls-5{fill:#fff;stroke-width:0.12px;}.cls-6{fill:#010101;}.cls-7{font-size:20px;fill:#231f20;stroke-width:0.5px;font-family:Arial-BoldMT, Arial;font-weight:700;}</style></defs><g id="Layer_2" data-name="Layer 2"><g id="Layer_1-2" data-name="Layer 1"><g id="compass_rose"><g id="ring_inner"><circle class="cls-1" cx="71.84" cy="94.43" r="39"/><circle class="cls-2" cx="71.84" cy="94.43" r="41"/><circle class="cls-3" cx="71.84" cy="94.43" r="40"/></g><g id="major-rose-edge"><path id="highlight-north" class="cls-4" d="M71.84,94.43l11-11.05-11-60.75"/><path id="highlight-east" class="cls-4" d="M71.84,94.43l11,11,60.75-11"/><path id="highlight-south" class="cls-4" d="M71.84,94.43l-11,11,11,60.75"/><path id="highlight-west" class="cls-4" d="M71.84,94.43l-11-11.05L0,94.43"/></g><g id="minor-rose"><g id="light-minor"><path id="light-northeast" class="cls-5" d="M71.84,94.43,93.93,72.34,71.84,82.92"/><path id="light-southeast" class="cls-5" d="M71.84,94.43l22.09,22.09L83.35,94.43"/><path id="light-southwest" class="cls-5" d="M71.84,94.43,49.75,116.52l22.09-10.58"/><path id="light-northwest" class="cls-5" d="M71.84,94.43,49.75,72.34,60.34,94.43"/></g><g id="dark-minor"><path id="dark-northeast" class="cls-6" d="M71.84,94.43,93.93,72.34,83.35,94.43"/><path id="dark-southeast" class="cls-6" d="M71.84,94.43l22.09,22.09L71.84,105.94"/><path id="dark-southwest" class="cls-6" d="M71.84,94.43,49.75,116.52,60.34,94.43"/><path id="dark-northwest" class="cls-6" d="M71.84,94.43,49.75,72.34,71.84,82.92"/></g></g><g id="major-rose"><g id="light-major"><path id="light-north" class="cls-5" d="M71.84,94.43l-11-11.05,11-60.75"/><path id="light-east" class="cls-5" d="M71.84,94.43l11-11.05,60.75,11.05"/><path id="light-south" class="cls-5" d="M71.84,94.43l11,11-11,60.75"/><path id="light-west" class="cls-5" d="M71.84,94.43l-11,11L0,94.43"/></g><g id="dark-major"><path id="dark-north" class="cls-6" d="M71.84,94.43l11-11.05-11-60.75"/><path id="dark-east" class="cls-6" d="M71.84,94.43l11,11,60.75-11"/><path id="dark-south" class="cls-6" d="M71.84,94.43l-11,11,11,60.75"/><path id="dark-west" class="cls-6" d="M71.84,94.43l-11-11.05L0,94.43"/></g></g><text id="text" class="cls-7" transform="translate(65.08 17.41)">N</text></g></g></g></svg>